<svg id="visual" viewBox="0 0 900 600" width="900" height="600" xmlns="http://www.w3.org/2000/svg" xmlns:xlink="http://www.w3.org/1999/xlink" version="1.1"><path d="M845 600L818 300L827 0L900 0L900 300L900 600Z" fill="#e8c3ff"></path><path d="M791 600L782 300L773 0L828 0L819 300L846 600Z" fill="#eac7ff"></path><path d="M737 600L719 300L701 0L774 0L783 300L792 600Z" fill="#ebcbff"></path><path d="M692 600L692 300L674 0L702 0L720 300L738 600Z" fill="#edd0ff"></path><path d="M575 600L557 300L602 0L675 0L693 300L693 600Z" fill="#eed4ff"></path><path d="M548 600L503 300L566 0L603 0L558 300L576 600Z" fill="#f0d8ff"></path><path d="M512 600L458 300L512 0L567 0L504 300L549 600Z" fill="#f2dcff"></path><path d="M422 600L377 300L404 0L513 0L459 300L513 600Z" fill="#f3e0ff"></path><path d="M197 600L242 300L260 0L405 0L378 300L423 600Z" fill="#f5e5ff"></path><path d="M134 600L206 300L224 0L261 0L243 300L198 600Z" fill="#f6e9ff"></path><path d="M0 600L0 300L0 0L225 0L207 300L135 600Z" fill="#f8edff"></path></svg>